<?xml version="1.0" encoding="UTF-8"?>
<svg version="1.1" xmlns="http://www.w3.org/2000/svg" width="855" height="847">
<path d="M0 0 C282.15 0 564.3 0 855 0 C855 279.51 855 559.02 855 847 C572.85 847 290.7 847 0 847 C0 567.49 0 287.98 0 0 Z " fill="#FEFEFF" transform="translate(0,0)"/>
<path d="M0 0 C2.99322871 2.81131978 4.2517769 5.04225462 4.6015625 9.06640625 C4.63055602 10.56484406 4.63786406 12.06383693 4.625 13.5625 C4.65722656 14.31724609 4.68945312 15.07199219 4.72265625 15.84960938 C4.72656457 18.06757851 4.64582092 19.87582804 4 22 C1.0234375 24.27734375 1.0234375 24.27734375 -2 26 C-2.95231597 28.12119128 -2.95231597 28.12119128 -3 30 C-1.89785156 29.76216797 -1.89785156 29.76216797 -0.7734375 29.51953125 C13.40474276 26.56981788 27.70324767 24.28881205 42 22 C42.83772949 21.86142578 43.67545898 21.72285156 44.53857422 21.58007812 C53.23064517 20.15850588 61.82950772 19.75941747 70.625 19.625 C71.65802246 19.59881592 72.69104492 19.57263184 73.75537109 19.5456543 C79.8530894 19.53212608 83.35101772 19.95282773 88 24 C90 26 90 26 90.25 28.5 C90 31 90 31 88 33 C84.875 33.125 84.875 33.125 82 33 C81.67 32.34 81.34 31.68 81 31 C57.11098915 30.06385589 33.44364427 35.32392218 9.99462891 39.32080078 C4.66554404 40.22862629 -0.6670887 41.11497781 -6 42 C-5.98771866 42.73138184 -5.97543732 43.46276367 -5.96278381 44.21630859 C-5.8944952 51.42862337 -6.2901764 58.45752407 -7.05859375 65.625 C-7.1672023 66.69258545 -7.27581085 67.7601709 -7.38771057 68.86010742 C-7.73194263 72.24068659 -8.08383178 75.62039594 -8.4375 79 C-10.03809479 94.3331857 -11.48218593 109.59001632 -12 125 C-12.04496613 126.20733795 -12.08993225 127.4146759 -12.13626099 128.65859985 C-12.93623389 150.41216863 -13.06167257 172.15115217 -12.9921875 193.91796875 C-12.98835304 195.22557285 -12.98451859 196.53317696 -12.98056793 197.88040543 C-12.943678 210.11068596 -12.89775449 222.34090179 -12.82861328 234.57104492 C-12.79045287 241.33978015 -12.76799896 248.10841729 -12.75430679 254.87725258 C-12.7462671 257.4333969 -12.73267893 259.98953017 -12.71337509 262.54561424 C-12.687035 266.08023934 -12.67901853 269.61445926 -12.67529297 273.14916992 C-12.6629361 274.19560669 -12.65057922 275.24204346 -12.6378479 276.32019043 C-12.64052673 277.27902634 -12.64320557 278.23786224 -12.64596558 279.22575378 C-12.64190138 280.05633395 -12.63783718 280.88691412 -12.63364983 281.74266338 C-13.08247417 284.50818034 -14.18373059 285.90876361 -16 288 C-19.25 288 -19.25 288 -23 287 C-30.80188976 276.73435557 -28.18581785 258.35898746 -28.31640625 245.91015625 C-28.33704281 244.22765166 -28.35804067 242.54515147 -28.37937927 240.86265564 C-28.43390957 236.48824687 -28.48361567 232.11379687 -28.53222656 227.73931885 C-28.58295421 223.25391075 -28.63836939 218.76856064 -28.69335938 214.28320312 C-28.80009302 205.52218481 -28.90171693 196.76111717 -29 188 C-29.36762451 188.42755585 -29.73524902 188.85511169 -30.11401367 189.29562378 C-31.8034447 191.25847588 -33.49545098 193.21909187 -35.1875 195.1796875 C-35.76564453 195.85217529 -36.34378906 196.52466309 -36.93945312 197.2175293 C-41.41123863 202.39355785 -46.07467594 207.25169604 -51 212 C-51.845625 212.86625 -52.69125 213.7325 -53.5625 214.625 C-59.3121246 220.22719833 -64.59069618 224.78768745 -72 228 C-73.175625 228.61875 -73.175625 228.61875 -74.375 229.25 C-80.0192277 230.86263649 -85.79365262 230.88257089 -91.1875 228.4375 C-100.65401433 222.89473205 -104.46611096 215.2177942 -108 205 C-108.86572191 201.68208972 -109.54586894 198.39815309 -110 195 C-110.70962891 195.92619141 -110.70962891 195.92619141 -111.43359375 196.87109375 C-127.70777989 217.71347249 -127.70777989 217.71347249 -138 219 C-143.68596562 219.53641185 -147.49872244 218.45170082 -152 215 C-163.17928779 204.08688573 -164.21013302 188.56620699 -164.625 173.8125 C-164.66367187 172.66974609 -164.70234375 171.52699219 -164.7421875 170.34960938 C-164.83534411 167.56655555 -164.92115849 164.78348978 -165 162 C-165.66 162 -166.32 162 -167 162 C-172.83904811 168.03764227 -176.62761709 175.47961991 -180.4375 182.875 C-192.00924957 205.33191821 -192.00924957 205.33191821 -201 211 C-204.125 211.5625 -204.125 211.5625 -207 211 C-210.74608694 208.29449277 -211.87822436 205.40081213 -213 201 C-213.34711359 198.66867683 -213.68215182 196.33549312 -214 194 C-215.52183555 195.66575159 -217.0424085 197.33265671 -218.5625 199 C-219.02140625 199.50257324 -219.4803125 200.00514648 -219.953125 200.52294922 C-222.52411483 203.34689708 -225.03684622 206.20701926 -227.5 209.125 C-236.56875081 219.48928664 -246.97532731 228.49102147 -260.9921875 230.25 C-267.53214291 230.65715676 -272.20339044 228.40747093 -277.10546875 224.1875 C-285.79128076 215.32243109 -288.54901793 204.01932907 -290 192 C-290.6084375 192.58265625 -291.216875 193.1653125 -291.84375 193.765625 C-297.87906476 199.41041939 -304.15013389 204.48545211 -310.80151367 209.38671875 C-315.56351269 212.90105942 -320.21282181 216.52608542 -324.8125 220.25 C-330.73713725 225.04039689 -336.77646576 229.60082819 -343 234 C-341.9378125 234.49628906 -340.875625 234.99257812 -339.78125 235.50390625 C-324.73419351 242.6769651 -324.73419351 242.6769651 -319 249 C-318.19369141 249.88751953 -318.19369141 249.88751953 -317.37109375 250.79296875 C-305.46745314 265.26230634 -305.69299079 283.23225157 -307 301 C-309.14817006 315.49578167 -314.19797443 333.35603682 -326.10546875 342.765625 C-330.62437088 345.70989938 -334.55839507 347.08832099 -340 346 C-348.45643814 341.97764928 -352.56294085 334.15743707 -355.59765625 325.69140625 C-360.70392257 310.63562437 -363.05435054 295.58031565 -364.6875 279.8125 C-364.81922607 278.55332764 -364.95095215 277.29415527 -365.08666992 275.99682617 C-366.06309172 265.95842108 -366.86234696 255.96925161 -365 246 C-365.54938232 246.23710693 -366.09876465 246.47421387 -366.66479492 246.71850586 C-369.17024834 247.796498 -371.67881378 248.86705402 -374.1875 249.9375 C-375.05181641 250.31068359 -375.91613281 250.68386719 -376.80664062 251.06835938 C-377.64775391 251.42607422 -378.48886719 251.78378906 -379.35546875 252.15234375 C-380.51018677 252.6472229 -380.51018677 252.6472229 -381.68823242 253.15209961 C-385.80881199 254.66342846 -389.75460653 255.15408721 -394.125 255.1875 C-394.97320312 255.20167969 -395.82140625 255.21585938 -396.6953125 255.23046875 C-399 255 -399 255 -402 253 C-402.77886726 249.92679507 -402.63909294 247.09342467 -402 244 C-396.08529652 236.99574588 -385.81487227 234.33382936 -377 233 C-374.09470215 232.76819432 -371.19697723 232.56836328 -368.28515625 232.44140625 C-367.15400391 232.22291016 -367.15400391 232.22291016 -366 232 C-363.84479751 228.76719626 -363.58249417 227.16976902 -363.1484375 223.37890625 C-363.01953125 222.27869141 -362.890625 221.17847656 -362.7578125 220.04492188 C-362.63148438 218.89572266 -362.50515625 217.74652344 -362.375 216.5625 C-362.2409375 215.41716797 -362.106875 214.27183594 -361.96875 213.09179688 C-361.46410355 208.69158879 -361 204.43343033 -361 200 C-362.16015625 201.32064453 -362.16015625 201.32064453 -363.34375 202.66796875 C-377.20295076 218.21024761 -377.20295076 218.21024761 -386.05078125 219.23828125 C-392.50934241 219.45022022 -395.65190839 218.0046976 -400.5234375 213.6328125 C-412.13750396 201.78292743 -412.21590553 183.6760867 -412.1027832 168.21313477 C-412.07512084 165.8085891 -412.0417197 163.40433823 -412 161 C-419.17761147 163.39253716 -423.45012209 175.55402789 -427 182 C-441.06380246 207.53190123 -441.06380246 207.53190123 -448 211 C-451.57529739 211.38861928 -453.32640241 211.50519819 -456.25 209.3125 C-459.91532834 204.4690304 -460.31129343 199.86897773 -461 194 C-462.85553893 195.99874144 -464.70952398 197.99888448 -466.5625 200 C-467.11607178 200.59651367 -467.66964355 201.19302734 -468.23999023 201.80761719 C-471.09541901 204.89524567 -473.87726681 208.01192469 -476.5625 211.25 C-482.80561816 218.43719944 -490.26515852 224.23498212 -499 228 C-500.175625 228.61875 -500.175625 228.61875 -501.375 229.25 C-507.0192277 230.86263649 -512.79365262 230.88257089 -518.1875 228.4375 C-527.0252173 223.28810423 -530.80761641 216.55376336 -534 207 C-534.32097656 206.08089844 -534.64195312 205.16179687 -534.97265625 204.21484375 C-540.39684244 185.46986544 -538.9245976 160.25385911 -530.08886719 142.72875977 C-528.88605138 140.8190874 -527.75195752 139.42796906 -526 138 C-522.5906288 137.63471023 -520.11976176 137.3859371 -517.0625 139.0625 C-514.02807816 144.59585747 -516.73332524 152.50829434 -517.9375 158.3125 C-521.55735917 175.90015496 -524.89907981 197.20111504 -514.921875 213.3671875 C-513.24518412 215.80622314 -513.24518412 215.80622314 -512 217 C-504.23314255 218.18191309 -498.46862584 214.25158788 -492.34521484 209.79589844 C-483.58015083 203.10749577 -476.62425113 195.36016789 -469.91015625 186.65625 C-467.66455048 183.75813099 -465.25549884 181.3062067 -462.5625 178.8125 C-457.99257945 173.83233606 -456.92575856 167.55309617 -455.29174805 161.17138672 C-453.70347778 155.08382359 -451.72307503 149.54992193 -448.875 143.9375 C-448.55015625 143.28966553 -448.2253125 142.64183105 -447.890625 141.97436523 C-446.02461049 138.43623863 -444.09248377 135.5582132 -441 133 C-438.375 132.625 -438.375 132.625 -436 133 C-434 135 -434 135 -433.6015625 138.6875 C-433.7622035 145.7331578 -436.24586695 152.34930348 -438.375 159 C-443.525652 174.18895052 -443.525652 174.18895052 -445 190 C-444.40574219 189.04222656 -443.81148438 188.08445313 -443.19921875 187.09765625 C-440.96432733 183.50229692 -438.71597926 179.91552231 -436.46289062 176.33154297 C-435.50274286 174.8012674 -434.54560779 173.26909657 -433.59179688 171.73486328 C-418.84584189 148.04489552 -418.84584189 148.04489552 -411 145 C-407.89397092 145.15530145 -406.37628539 145.70701982 -403.91796875 147.62109375 C-401.39725933 150.74759484 -401.22756488 152.95534291 -400.8125 156.9375 C-400.73700928 157.62553711 -400.66151855 158.31357422 -400.58374023 159.02246094 C-399.98440128 164.92063448 -399.78134258 170.82800317 -399.5625 176.75 C-399.17523476 186.9863125 -398.68636984 199.31363016 -391 207 C-387.06610691 207.45391074 -384.6386985 207.31255458 -381.0625 205.5625 C-372.45500896 198.36031362 -366.44629897 189.16483737 -360.30151367 179.88647461 C-359 178 -359 178 -357.67700195 176.36547852 C-353.5252953 171.17055865 -352.17350654 165.56007605 -350.5625 159.1875 C-349.96141606 156.94057931 -349.35722819 154.69448676 -348.75 152.44921875 C-348.45480469 151.35013184 -348.15960938 150.25104492 -347.85546875 149.11865234 C-344.985132 138.65470209 -341.46118131 128.55348416 -336.9375 118.6875 C-336.62111572 117.98753906 -336.30473145 117.28757812 -335.97875977 116.56640625 C-333.35783425 111.07840209 -330.11304414 107.40869609 -325 104 C-322.5625 103.5625 -322.5625 103.5625 -320 104 C-317.2956107 106.19274808 -316.20033267 107.95553051 -315.54296875 111.3828125 C-315.36920644 114.09027173 -315.40813007 116.34983615 -316 119 C-318.75 121.5 -318.75 121.5 -320.4140625 122.62890625 C-330.1017638 131.00423422 -332.19500131 156.22567289 -335.29931641 168.30273438 C-335.90619859 170.63891358 -336.53123756 172.96870452 -337.16796875 175.296875 C-341.05385596 189.88756263 -343.09541543 204.93398803 -344 220 C-335.53294304 214.87564889 -327.72652394 209.15583918 -320 203 C-319.03707031 202.23300781 -318.07414063 201.46601563 -317.08203125 200.67578125 C-311.69739754 196.32402509 -306.41828323 191.87316044 -301.359375 187.14453125 C-299 185 -299 185 -296.703125 183.32421875 C-289.78388218 177.8317541 -289.55282522 170.99563956 -288.5703125 162.72265625 C-288.47782227 161.91586426 -288.38533203 161.10907227 -288.29003906 160.27783203 C-287.18032333 151.5626403 -285.29449136 144.29449136 -279 138 C-272.75520833 137.43229167 -272.75520833 137.43229167 -270.30078125 139.27734375 C-267.91403348 142.43817188 -268.58635582 146.25571441 -269 150 C-269.65814211 153.1949808 -270.4123832 156.34249298 -271.24609375 159.49609375 C-273.102807 168.12548125 -273.18221376 176.82869306 -273.1875 185.625 C-273.19974609 186.70523438 -273.21199219 187.78546875 -273.22460938 188.8984375 C-273.23920006 196.87468081 -272.34019658 203.54222469 -269 210.875 C-268.67 211.61492187 -268.34 212.35484375 -268 213.1171875 C-267.03012663 215.16508069 -267.03012663 215.16508069 -265 217 C-257.22283484 218.13416992 -251.28328024 214.41616909 -245.16015625 209.91015625 C-237.52256235 203.78122287 -230.86131259 197.40945925 -225.0234375 189.55078125 C-223 187 -223 187 -220.2890625 184.16796875 C-213.2651606 176.78979109 -210.4777079 170.44555473 -208.171875 160.58984375 C-207.06075713 155.93085929 -205.42014335 151.63090459 -203.5 147.25 C-203.09056152 146.28549927 -203.09056152 146.28549927 -202.67285156 145.30151367 C-200.67109284 140.83881777 -198.37625785 137.48618253 -195 134 C-191.1875 133.125 -191.1875 133.125 -188 133 C-185.50829626 136.73755561 -185.70954077 138.56482137 -186 143 C-186.79443359 146.23803711 -186.79443359 146.23803711 -187.8984375 149.52734375 C-188.29546875 150.73197266 -188.6925 151.93660156 -189.1015625 153.17773438 C-189.73191406 155.03881836 -189.73191406 155.03881836 -190.375 156.9375 C-195.67008695 172.12940503 -195.67008695 172.12940503 -197 188 C-196.59273682 187.37134033 -196.18547363 186.74268066 -195.76586914 186.0949707 C-191.19775773 179.04980749 -186.60602568 172.02042606 -182 165 C-181.26692627 163.87706543 -181.26692627 163.87706543 -180.51904297 162.73144531 C-170.73259656 147.79838669 -170.73259656 147.79838669 -162.875 144.8125 C-160 145 -160 145 -157.3984375 147 C-154.46723559 150.66638935 -154.05130731 153.66203022 -153.75 158.1875 C-153.64353149 159.36638794 -153.64353149 159.36638794 -153.53491211 160.5690918 C-153.12144791 165.38549452 -152.88303319 170.2068728 -152.66552734 175.03540039 C-152.09610247 192.34339498 -152.09610247 192.34339498 -144 207 C-139.99854162 207.62091596 -137.4915368 207.89549796 -133.9765625 205.78515625 C-129.43232811 201.96835859 -125.64497058 197.47559705 -122.08203125 192.74609375 C-120 190 -120 190 -117.63671875 187.34765625 C-110.91176762 179.14783859 -109.52006236 171.48051225 -108.31542969 161.10913086 C-107.38696252 153.19673365 -105.77555318 146.01976667 -101.1875 139.375 C-97.99330957 137.36722316 -95.68734397 137.53070168 -92 138 C-90.0625 139 -90.0625 139 -89 141 C-88.72708013 146.10750046 -89.19392852 150.39909632 -90.42358398 155.34179688 C-92.77070329 164.8933099 -93.41242176 174.17747861 -93.4375 184 C-93.44716797 185.20358154 -93.45683594 186.40716309 -93.46679688 187.6472168 C-93.37077716 197.88531924 -92.6405161 209.3594839 -85 217 C-75.33573446 217.3020083 -68.68623998 212.67497803 -61.75 206.4375 C-60.96109375 205.69371094 -60.1721875 204.94992188 -59.359375 204.18359375 C-57 202 -57 202 -54.51953125 200.125 C-51.51620036 197.59195813 -49.27400189 194.6895054 -46.9375 191.5625 C-41.11269919 183.94412992 -34.78348284 176.78348284 -28 170 C-27.85125832 167.69128135 -27.77190638 165.3780799 -27.71875 163.06518555 C-27.70070313 162.3399469 -27.68265625 161.61470825 -27.6640625 160.86749268 C-27.62536954 159.2873253 -27.58893112 157.70710152 -27.55444336 156.12683678 C-27.4997692 153.62616255 -27.43916162 151.12569575 -27.37695312 148.62519836 C-27.24589289 143.31275472 -27.12253141 138.00014623 -27 132.6875 C-26.85797451 126.54295593 -26.71281926 120.39851424 -26.56030273 114.25422096 C-26.5006933 111.79037516 -26.44652878 109.32644782 -26.39257812 106.86247253 C-26.35572857 105.34930802 -26.31863237 103.83614949 -26.28125 102.32299805 C-26.26771484 101.63764481 -26.25417969 100.95229156 -26.24023438 100.24617004 C-26.1548852 97.01146707 -25.87184229 94.11140096 -25 91 C-24.81046881 89.47503541 -24.65259619 87.94594329 -24.51928711 86.41503906 C-24.43927963 85.51440735 -24.35927216 84.61377563 -24.27684021 83.68585205 C-24.19450638 82.72217712 -24.11217255 81.7585022 -24.02734375 80.765625 C-23.93997452 79.77246277 -23.85260529 78.77930054 -23.7625885 77.75604248 C-23.48455442 74.58761604 -23.21097246 71.4188231 -22.9375 68.25 C-22.7496423 66.10023476 -22.56149473 63.95049483 -22.37304688 61.80078125 C-21.91200215 56.53414309 -21.45461099 51.2671972 -21 46 C-36.89200089 49.54702499 -52.64020665 53.14442701 -68.08203125 58.36523438 C-70.8879848 59.29388499 -73.72564306 60.10891307 -76.5625 60.9375 C-96.21956759 66.98883733 -96.21956759 66.98883733 -114 77 C-115.23820025 79.56249149 -115.23820025 79.56249149 -116 82 C-119.05693322 83.52846661 -121.62984547 83.23242445 -125 83 C-127.4375 81.875 -127.4375 81.875 -129 80 C-129.75 77.25 -129.75 77.25 -129 74 C-114.53965705 54.50599336 -73.66779076 47.10290827 -51.76171875 41.9296875 C-47.56802733 40.8932404 -43.44717297 39.68485208 -39.3125 38.4375 C-32.26447039 36.31542583 -25.20096061 34.5403794 -18 33 C-17.78085937 31.76765625 -17.56171875 30.5353125 -17.3359375 29.265625 C-15.50685209 19.52527733 -13.67713641 10.34160577 -8 2 C-4.75846834 -0.1610211 -3.76307099 -0.64247553 0 0 Z " fill="#3CB7FF" transform="translate(652,8)"/>
<path d="M0 0 C3.29714793 0.32971479 4.6226839 0.6226839 7 3 C6.61549909 9.54933225 5.23803208 15.75235327 3.75 22.125 C-2.90721779 51.77943668 -6.71012779 82.22178021 -9.75 112.4375 C-9.87777832 113.67435547 -10.00555664 114.91121094 -10.13720703 116.18554688 C-10.96537831 124.82834699 -11.13763422 133.3267502 -11 142 C-10.40574219 140.92363281 -9.81148438 139.84726562 -9.19921875 138.73828125 C-1.75560982 125.51280043 5.82953219 112.76632905 20 106 C20.66 105.67 21.32 105.34 22 105 C28.44032357 104.49865745 34.60843401 104.02051082 40 108 C46.25558148 113.82906456 50.74387903 122.00511698 51.11352539 130.65722656 C51.10567017 132.13400879 51.10567017 132.13400879 51.09765625 133.640625 C51.09282227 135.24550781 51.09282227 135.24550781 51.08789062 136.8828125 C51.07532227 138.54957031 51.07532227 138.54957031 51.0625 140.25 C51.05798828 141.37664062 51.05347656 142.50328125 51.04882812 143.6640625 C51.03705397 146.44276217 51.0206084 149.22135409 51 152 C61.63441051 146.34013041 71.63307752 140.62479422 81 133 C81.89428711 132.43659912 82.78857422 131.87319824 83.70996094 131.29272461 C88.25673482 128.17378033 91.40632273 125.78815348 93.18041992 120.44458008 C93.79867984 116.97131033 94.06495079 113.48593768 94.25234985 109.96566772 C94.42077141 106.83731792 94.70456944 103.72233454 94.9813385 100.602005 C95.1213813 99.01319516 95.25593503 97.42389193 95.38499451 95.83415222 C96.79743666 78.69260996 100.6922146 61.8077002 104.5 45.0625 C104.90859253 43.24141724 104.90859253 43.24141724 105.32543945 41.38354492 C110.8245676 17.979527 110.8245676 17.979527 118 12 C121.6875 11.5 121.6875 11.5 125 12 C127 14 127 14 127.28540039 15.84765625 C127.2847592 21.66451181 126.22307521 26.49155882 124.4375 32 C118.37488409 51.96751291 114.18825163 72.79395884 111.60546875 93.4921875 C111.20488155 96.68188056 110.66874578 99.81652251 110.05859375 102.97265625 C108.61058638 110.78579203 107.73005059 118.66680001 106.875 126.5625 C106.78595398 127.38459961 106.69690796 128.20669922 106.60516357 129.05371094 C105.31969761 141.21040384 104.61152169 153.27534919 104.625 165.5 C104.62336853 166.18708038 104.62173706 166.87416077 104.62005615 167.58206177 C104.62342025 179.98716643 106.09102861 191.94854712 109 204 C127.32793947 193.33647158 136.48835948 160.66969785 145.265625 142.1015625 C145.99869873 140.55480835 145.99869873 140.55480835 146.74658203 138.97680664 C147.62773058 137.11384699 148.50417835 135.24865197 149.37451172 133.38061523 C156.31018149 118.68939967 156.31018149 118.68939967 160.56787109 114.43237305 C163.07100829 111.92880913 164.26287407 108.54765668 165.75 105.375 C174.33222907 87.68371982 174.33222907 87.68371982 182 85 C185.6875 85.125 185.6875 85.125 189 86 C191 89 191 89 190.875 91.9375 C189.88285504 95.41000736 188.49487992 96.50512008 186 99 C186.34182924 102.6202824 188.23097008 104.90938652 190.375 107.75 C199.16916627 120.20990704 198.05509054 133.7012775 195.62158203 148.26464844 C193.10083622 160.92585377 186.59936538 172.63296414 176.6875 180.9375 C172.51403619 182.58747406 168.48808353 183.23773155 164 183 C158.15102094 180.1838249 154.60046403 176.01690541 152.3125 170 C151.11455212 166.05640965 150.69542551 162.29489724 150.41796875 158.1875 C150.33699951 157.02605469 150.25603027 155.86460937 150.17260742 154.66796875 C150.11564697 153.78753906 150.05868652 152.90710938 150 152 C149.65855957 152.77899658 149.31711914 153.55799316 148.96533203 154.3605957 C129.29509229 199.10133029 129.29509229 199.10133029 120 209 C119.21625 209.845625 118.4325 210.69125 117.625 211.5625 C113.74628527 213.68655807 110.32060358 213.75551538 106 213 C99.77044791 209.67757222 97.57102756 202.99347993 95.375 196.625 C90.31551014 178.20185758 91.40147173 157.95403524 91 139 C90.27482178 139.60545654 89.54964355 140.21091309 88.80249023 140.8347168 C87.83512939 141.63562744 86.86776855 142.43653809 85.87109375 143.26171875 C84.91904053 144.05280029 83.9669873 144.84388184 82.98608398 145.65893555 C76.46713353 150.76973727 69.23026991 154.81802875 61.9375 158.7109375 C50.97180055 164.69795157 44.98129805 168.7414328 41 181 C39.77827451 183.79643968 38.43340441 186.52407652 37.0625 189.25 C36.7219458 189.93352539 36.3813916 190.61705078 36.03051758 191.32128906 C33.26302094 196.75189837 30.01162321 201.40469951 26 206 C25.49339844 206.66 24.98679687 207.32 24.46484375 208 C15.78057373 218.92468367 2.56508172 226.58627341 -11.26953125 228.4375 C-17.53505855 228.68969733 -23.01947754 228.0466745 -28 224 C-31.00844695 220.70096443 -32.26869287 217.16722989 -32.6875 212.75 C-32.22413089 204.2211124 -25.92647019 197.58887912 -20.0625 191.9375 C-13.26448077 186.07490303 -5.75097554 181.48940931 2 177 C3.12196777 176.3493457 3.12196777 176.3493457 4.26660156 175.68554688 C12.85450825 170.74176677 21.4206944 166.12734043 30.59375 162.3515625 C33.37818052 160.78758042 34.0119747 159.99594769 35 157 C37.70287398 145.2875461 39.34375795 131.19330369 34 120 C31.89638463 117.41272791 31.28403985 117.05112717 27.875 116.4375 C19.45996656 117.65903711 13.96156097 123.42430108 9.0234375 130.01171875 C1.76261992 140.73474085 -3.59151444 152.16307601 -8.55029297 164.10620117 C-10.64023596 169.10084709 -12.6381854 173.72901542 -16 178 C-18.5 178.75 -18.5 178.75 -21 178 C-25.2134891 173.06019763 -25.59103801 169.2649398 -25.53125 163.07421875 C-25.53943756 161.7552359 -25.53943756 161.7552359 -25.54779053 160.40960693 C-25.55595487 157.50164415 -25.53039585 154.59530065 -25.5 151.6875 C-25.49512573 150.68268585 -25.49025146 149.6778717 -25.48522949 148.64260864 C-24.78810995 24.78810995 -24.78810995 24.78810995 0 0 Z " fill="#3BB7FF" transform="translate(329,517)"/>
<path d="M0 0 C3.40725283 2.05428176 5.3466231 3.62735653 7.58203125 6.98046875 C7.8125 9.13671875 7.8125 9.13671875 7.76953125 11.48046875 C7.76308594 12.25390625 7.75664063 13.02734375 7.75 13.82421875 C7.58203125 15.98046875 7.58203125 15.98046875 6.58203125 18.98046875 C4.39453125 18.91796875 4.39453125 18.91796875 1.58203125 17.98046875 C-0.80424233 15.4136123 -3.41796875 12.59128427 -3.41796875 8.98046875 C-10.98077715 8.14015671 -15.41469441 10.45936929 -21.41796875 14.98046875 C-30.81840766 23.04457076 -36.89399085 32.73153776 -42.66796875 43.54296875 C-43.09263428 44.33429199 -43.5172998 45.12561523 -43.95483398 45.94091797 C-47.86226117 53.43280597 -50.96407712 60.42477097 -50.41796875 68.98046875 C-35.36365538 60.49531031 -25.07914344 44.91764792 -15.90625 30.625 C-13.37278662 26.86802675 -12.1920763 25.24740239 -7.79296875 23.73046875 C-4.41796875 23.98046875 -4.41796875 23.98046875 -2.31640625 25.6953125 C5.53363777 35.14443956 2.86471751 51.57444058 2.58203125 62.98046875 C8.21549338 59.6579326 13.21944238 55.94808567 18.20703125 51.73046875 C38.9561929 34.62027084 38.9561929 34.62027084 49.58203125 34.98046875 C50.58203125 35.98046875 50.58203125 35.98046875 50.9453125 38.2734375 C50.43157008 42.10164718 48.79721686 42.9766834 45.76953125 45.29296875 C44.7640625 46.0715625 43.75859375 46.85015625 42.72265625 47.65234375 C38.92443565 50.46794012 35.11133853 53.25978313 31.26953125 56.015625 C27.78440148 58.56361959 24.42421117 61.24749044 21.0703125 63.96484375 C17.67485802 66.71532179 14.2402673 69.41599603 10.80859375 72.12109375 C5.79768853 76.18009909 5.79768853 76.18009909 3.58203125 81.98046875 C3.46938226 83.85731258 3.4043452 85.73726014 3.37109375 87.6171875 C2.3426778 131.93459201 -2.48974779 187.76432747 -36.375 220.296875 C-39.77472844 223.09856326 -43.45845473 225.08511998 -47.41796875 226.98046875 C-48.22234375 227.41359375 -49.02671875 227.84671875 -49.85546875 228.29296875 C-56.40882515 230.05118632 -62.68316772 229.71224813 -68.6015625 226.3046875 C-74.38399555 222.08910728 -77.55430181 216.88695486 -79.41796875 209.98046875 C-79.84165547 206.80093152 -79.89553499 203.68514165 -79.85546875 200.48046875 C-79.84193359 199.16780029 -79.84193359 199.16780029 -79.828125 197.82861328 C-79.42810258 182.55831293 -74.05459514 169.5233877 -67.41796875 155.98046875 C-67.03866211 155.20268066 -66.65935547 154.42489258 -66.26855469 153.62353516 C-54.93997784 130.65930994 -39.95143629 109.31219629 -22.34375 90.703125 C-21.59327393 89.90648437 -21.59327393 89.90648437 -20.82763672 89.09375 C-19.43922538 87.63119796 -18.03645192 86.18231868 -16.6328125 84.734375 C-12.68728546 79.82856096 -12.16203578 74.99908308 -12.00390625 68.83203125 C-11.9845401 68.17463959 -11.96517395 67.51724792 -11.94522095 66.8399353 C-11.88594414 64.7619074 -11.83925081 62.68382251 -11.79296875 60.60546875 C-11.75474097 59.18747725 -11.71568652 57.76950778 -11.67578125 56.3515625 C-11.58028704 52.89473414 -11.49606686 49.43773892 -11.41796875 45.98046875 C-15.03435333 49.55461378 -18.37476138 53.24668376 -21.60546875 57.16796875 C-39.40045399 78.36941398 -39.40045399 78.36941398 -49.90625 80.48046875 C-53.80143501 80.68447189 -55.75158465 80.48025683 -58.91796875 78.10546875 C-62.94142709 72.40556943 -62.09194757 64.71100319 -61.41796875 57.98046875 C-58.04653138 42.78433155 -48.7757475 28.36100842 -38.41796875 16.98046875 C-37.44923828 15.88992188 -37.44923828 15.88992188 -36.4609375 14.77734375 C-31.43500103 9.41361522 -25.73745881 5.67825086 -19.41796875 1.98046875 C-18.42796875 1.34109375 -17.43796875 0.70171875 -16.41796875 0.04296875 C-11.03584912 -1.86319862 -5.33601308 -2.24991828 0 0 Z " fill="#3CB7FF" transform="translate(597.41796875,599.01953125)"/>
<path d="M0 0 C0.66 0 1.32 0 2 0 C2.2625865 10.51075426 1.50089048 20.6437892 0.25 31.0625 C0.16007782 31.82768951 0.07015564 32.59287903 -0.02249146 33.3812561 C-3.56622291 63.39642304 -8.47134694 101.00106562 -33.75 121 C-38.34714435 124.05541911 -42.01646396 124.94331938 -47.51171875 124.5546875 C-51.64072047 123.6342507 -53.25238571 122.24077583 -56 119 C-61.35915034 108.7688948 -57.14885553 95.39185345 -54 85 C-47.05660275 63.57314197 -36.16747003 46.11990181 -23 28 C-22.4534375 27.24557617 -21.906875 26.49115234 -21.34375 25.71386719 C-14.74097113 16.63909206 -7.95147374 7.95147374 0 0 Z " fill="#FCFEFF" transform="translate(584,694)"/>
<path d="M0 0 C2.71684654 1.55248374 3.80427567 2.41075005 5.1875 5.25 C6.53624459 12.49764952 4.23576971 18.29182427 0.1875 24.25 C-6.48176131 32.3945458 -15.7267491 40.77081172 -26.5625 42.1875 C-27.635 42.208125 -28.7075 42.22875 -29.8125 42.25 C-29.56251556 49.0495768 -29.22762411 55.74408052 -24.8125 61.25 C-19.36887941 65.24939472 -14.32797463 65.04325519 -7.8125 64.25 C8.9818388 59.97920377 24.12397794 47.79953701 35.8828125 35.41015625 C38.1875 33.25 38.1875 33.25 41.5 32.9375 C42.386875 33.040625 43.27375 33.14375 44.1875 33.25 C44.61307631 37.50576311 44.59476319 39.63910522 42.1875 43.25 C41.21480746 44.27658133 40.21236384 45.27549802 39.1875 46.25 C38.38505859 47.01376953 38.38505859 47.01376953 37.56640625 47.79296875 C35.48744814 49.67520825 33.35180803 51.46622965 31.1875 53.25 C30.68009277 53.66975098 30.17268555 54.08950195 29.64990234 54.52197266 C21.92011309 60.87717522 14.15511655 66.71068378 5.1875 71.25 C4.34316406 71.683125 3.49882813 72.11625 2.62890625 72.5625 C-6.26337632 76.46048688 -17.71888908 77.30875387 -26.98046875 74.1796875 C-34.27156823 70.14255829 -39.0430318 64.04103141 -41.8125 56.25 C-43.67720345 42.70161677 -42.71724539 30.60930015 -34.8125 19.25 C-34.19890625 18.33089844 -33.5853125 17.41179687 -32.953125 16.46484375 C-25.2391153 5.8979255 -13.63876664 -3.63700444 0 0 Z " fill="#3CB7FF" transform="translate(700.8125,141.75)"/>
<path d="M0 0 C10.71316465 2.01977707 18.51224822 7.63736525 24.7578125 16.4921875 C32.17171079 28.27562971 33.23087279 42.38564893 30.38476562 55.92724609 C27.36395896 67.09167575 23.11982667 77.79726591 16 87 C13.8125 87 13.8125 87 11 86 C-2.50161074 69.86392863 -0.28744686 41.70817609 -0.125 22 C-0.11494248 19.85677505 -0.10582157 17.71354549 -0.09765625 15.5703125 C-0.07588003 10.38009208 -0.04150546 5.1900986 0 0 Z " fill="#FBFDFF" transform="translate(304,253)"/>
<path d="M0 0 C0.66 0.33 1.32 0.66 2 1 C-16.58725432 34.86241811 -16.58725432 34.86241811 -35 41 C-37.03992808 41.09398043 -39.08291414 41.12992069 -41.125 41.125 C-42.20007813 41.12757813 -43.27515625 41.13015625 -44.3828125 41.1328125 C-47 41 -47 41 -48 40 C-48 34.1621856 -46.16428665 31.30135811 -42.15063477 27.14941406 C-35.5107078 20.51325593 -28.79976126 15.32582018 -20.5625 10.8125 C-19.68529297 10.31814453 -18.80808594 9.82378906 -17.90429688 9.31445312 C-15.28348526 7.84857544 -12.64793403 6.41624573 -10 5 C-8.60563721 4.25242432 -8.60563721 4.25242432 -7.18310547 3.48974609 C-5.83756592 2.78906006 -5.83756592 2.78906006 -4.46484375 2.07421875 C-3.65523193 1.65100342 -2.84562012 1.22778809 -2.01147461 0.79174805 C-1.34768799 0.53047119 -0.68390137 0.26919434 0 0 Z " fill="#FBFDFF" transform="translate(356,693)"/>
<path d="M0 0 C3.84570312 1.66992188 3.84570312 1.66992188 5.234375 4.640625 C6.08860236 8.38876544 6.30345731 11.92803061 6.25 15.75 C6.23876099 16.81214722 6.23876099 16.81214722 6.22729492 17.89575195 C5.95792686 31.08274833 2.52498617 44.47501383 -7 54 C-8.9375 53.625 -8.9375 53.625 -11 53 C-14.98943885 45.02112229 -11.34128087 32.21827655 -9 24 C-6.28829541 15.89458585 -3.16965433 7.93556607 0 0 Z " fill="#FAFDFF" transform="translate(507,630)"/>
<path d="M0 0 C4.22530261 1.07553157 5.23379098 2.48371126 7.4921875 6.05078125 C9.57940939 10.078602 9.81729691 13.39339652 9.4375 17.875 C7.41083762 21.57890021 5.95705484 23.52863011 2.4375 25.875 C-1.4598724 26.38335292 -3.06806726 26.20462183 -6.375 24 C-9.68051804 20.78892533 -9.81287657 18.70681429 -10 14.1875 C-9.95843444 9.86987775 -9.66799257 7.08061804 -7 3.625 C-4.54439762 1.27364489 -3.44590554 0.84636276 0 0 Z " fill="#3EB8FF" transform="translate(388.5625,88.125)"/>
<path d="M0 0 C3.58031209 2.78468718 5.73328137 5.86971481 6.30078125 10.40234375 C6.34136194 19.18130063 6.34136194 19.18130063 3 23 C0.34500276 25.08606926 -1.06750504 24.99879455 -4.5 24.9375 C-8.6567082 23.82409602 -9.73419426 22.57300136 -12 19 C-13.56428238 15.87143524 -13.28007086 13.47287869 -13 10 C-10.54613226 3.25793765 -7.87330135 -0.96407772 0 0 Z " fill="#3DB8FF" transform="translate(571,89)"/>
<path d="M0 0 C3.69770414 2.87599211 5.71383449 5.97876783 6.37109375 10.62109375 C6.5490403 18.16812076 6.5490403 18.16812076 3.9375 22.125 C0.39938204 24.38337317 -1.79723877 25.07504931 -6 25 C-8.80189446 23.23358828 -10.51524911 21.96950178 -12 19 C-12.14851844 17.06640414 -12.22130833 15.12657903 -12.25 13.1875 C-12.27578125 12.14980469 -12.3015625 11.11210938 -12.328125 10.04296875 C-11.95408344 6.57417855 -11.07568054 4.77889007 -9 2 C-5.50875983 -0.32749345 -4.10777749 -0.50299316 0 0 Z " fill="#3BB7FF" transform="translate(144,89)"/>
<path d="M0 0 C-0.15981344 6.39253746 -3.61896848 9.77904463 -8 14 C-12.33905871 17.71323293 -16.77365849 20.64814632 -22 23 C-19.60308756 13.41235024 -12.47561167 6.99544056 -5 1 C-3 0 -3 0 0 0 Z " fill="#F5FBFF" transform="translate(696,152)"/>
</svg>
